<?xml version="1.0" standalone="no"?>
<!DOCTYPE svg PUBLIC "-//W3C//DTD SVG 20010904//EN"
 "http://www.w3.org/TR/2001/REC-SVG-20010904/DTD/svg10.dtd">
<svg version="1.0" xmlns="http://www.w3.org/2000/svg"
 width="4600.000000pt" height="4600.000000pt" viewBox="0 0 4600.000000 4600.000000"
 preserveAspectRatio="xMidYMid meet">
<metadata>
Created by potrace 1.11, written by Peter Selinger 2001-2013
</metadata>
<g transform="translate(0.000000,4600.000000) scale(0.100000,-0.100000)"
fill="#000000" stroke="none">
<path d="M25454 40364 c-114 -19 -229 -57 -303 -101 -421 -250 -1186 -1183
-1527 -1863 -140 -280 -245 -653 -300 -1065 -24 -183 -29 -535 -10 -703 46
-393 147 -605 420 -878 425 -424 1158 -813 1816 -963 208 -47 711 -121 823
-121 77 0 238 -37 417 -95 272 -89 323 -90 495 -5 181 90 298 213 346 364 70
216 -28 503 -236 694 -180 165 -479 250 -1184 337 -610 76 -882 159 -1222 375
-255 161 -419 303 -461 397 -34 77 -36 206 -5 388 59 344 145 588 314 900 287
527 691 995 1011 1172 298 164 433 355 420 593 -9 152 -72 272 -223 425 -106
108 -152 137 -244 155 -73 14 -249 11 -347 -6z"/>
<path d="M12030 40185 c-86 -19 -135 -38 -255 -98 -219 -109 -451 -276 -830
-599 -445 -378 -1786 -1511 -2230 -1883 -881 -739 -1714 -1463 -2123 -1843
-109 -102 -127 -124 -162 -196 -51 -103 -67 -201 -51 -304 41 -266 227 -491
465 -564 55 -17 86 -20 160 -16 139 7 190 36 481 270 272 219 885 730 1490
1243 226 191 420 351 433 356 33 13 68 -8 142 -87 267 -286 866 -1280 1300
-2159 274 -556 355 -791 321 -932 -7 -26 -41 -109 -76 -183 -79 -167 -99 -239
-93 -341 8 -133 91 -274 248 -423 95 -89 191 -141 277 -150 108 -12 324 42
442 111 148 86 278 271 356 506 125 376 115 760 -31 1192 -263 781 -1046 2186
-1764 3166 -33 46 -63 93 -66 105 -21 82 119 212 1076 1001 883 726 1054 884
1133 1043 31 62 32 70 31 180 0 101 -3 124 -27 184 -112 284 -405 474 -647
421z"/>
<path d="M32485 39604 c-214 -31 -322 -56 -505 -116 -425 -139 -646 -281
-1020 -657 -411 -412 -558 -653 -735 -1201 -213 -662 -304 -1350 -244 -1850
44 -375 172 -676 415 -976 282 -350 918 -851 1354 -1070 312 -155 740 -237
1245 -237 331 0 574 27 855 94 239 58 474 165 720 327 250 164 420 302 659
537 264 259 447 477 626 745 339 509 466 910 482 1531 10 400 -27 645 -128
839 -215 412 -1057 994 -1804 1246 -206 69 -363 102 -545 114 -80 5 -163 15
-184 22 -65 21 -134 95 -226 243 -145 233 -280 331 -540 391 -63 14 -362 27
-425 18z m-552 -1606 c13 -18 39 -61 57 -95 72 -137 217 -257 373 -308 131
-42 192 -36 437 48 275 94 349 110 495 110 234 1 570 -77 902 -207 263 -103
425 -187 693 -359 85 -55 178 -115 205 -132 l51 -33 -18 -218 c-20 -260 -39
-374 -83 -510 -90 -277 -258 -514 -629 -892 -303 -308 -444 -423 -641 -522
-218 -110 -439 -147 -800 -137 -355 11 -559 45 -705 118 -230 116 -604 391
-822 606 -150 147 -188 220 -209 399 -16 131 -6 601 16 754 82 589 287 1105
534 1343 81 79 107 85 144 35z"/>
<path d="M16875 38903 c-237 -33 -470 -170 -648 -381 -138 -164 -256 -372
-322 -567 -132 -395 -360 -1291 -481 -1895 -63 -317 -105 -482 -167 -665 -56
-163 -66 -231 -65 -425 1 -199 -21 -384 -126 -1043 -55 -347 -58 -486 -13
-611 103 -281 413 -425 732 -341 168 45 313 151 369 269 37 79 79 253 111 456
102 649 152 909 183 964 33 57 365 235 1012 544 509 243 975 478 1199 604
l194 110 27 -29 c15 -15 164 -176 332 -358 617 -667 708 -737 963 -737 92 -1
123 4 191 26 257 83 404 316 391 621 -9 225 -77 330 -537 825 -372 401 -550
630 -550 709 0 90 -147 293 -298 413 -82 65 -121 87 -214 121 -122 44 -354
219 -672 506 -654 590 -980 811 -1289 875 -71 15 -245 20 -322 9z m467 -1503
c339 -296 568 -524 568 -566 0 -21 -99 -81 -320 -193 -319 -162 -737 -345
-817 -358 -31 -5 -33 -4 -33 22 0 71 136 642 215 900 40 131 146 396 157 392
4 -1 107 -90 230 -197z"/>
<path d="M23910 31194 c-183 -6 -526 -25 -655 -35 -241 -19 -369 -40 -695
-114 -179 -41 -541 -122 -805 -180 -264 -58 -604 -133 -755 -166 -1318 -291
-2665 -661 -3207 -880 -718 -290 -1824 -1016 -1962 -1288 -29 -56 -48 -140
-66 -294 -29 -243 -48 -276 -207 -357 -720 -367 -1723 -1251 -2565 -2260 -481
-576 -1095 -1471 -1528 -2225 -762 -1330 -1218 -2559 -1340 -3610 -120 -1046
104 -2710 568 -4210 216 -697 485 -1328 802 -1880 733 -1279 1753 -2134 4205
-3527 3155 -1793 6029 -2820 9310 -3327 950 -147 2103 -273 2945 -322 258 -15
858 -15 1045 0 366 29 657 80 990 171 669 184 1298 440 1757 715 832 500 1689
1268 2901 2599 998 1095 2098 2372 2473 2871 653 866 1135 1766 1394 2600 203
654 374 1708 426 2626 13 239 7 870 -11 1029 -120 1089 -938 3617 -1645 5085
-645 1342 -1872 2874 -3255 4066 -434 374 -951 755 -1335 984 -642 384 -1570
815 -2257 1050 -781 267 -2305 603 -3518 774 -272 39 -600 66 -1105 92 -196
10 -1695 20 -1905 13z m1735 -1464 c901 -36 1564 -124 2666 -355 1119 -235
1743 -425 2489 -755 936 -415 1554 -805 2331 -1471 1076 -922 2159 -2261 2767
-3419 574 -1094 1454 -3712 1587 -4720 35 -261 30 -742 -11 -1185 -68 -734
-236 -1602 -415 -2140 -164 -493 -597 -1273 -1013 -1825 -666 -883 -2590
-3074 -3501 -3985 -600 -600 -1121 -1000 -1730 -1327 -345 -186 -878 -407
-1079 -448 -521 -107 -1915 -119 -2971 -24 -437 39 -1536 188 -2095 284 -897
155 -1688 346 -2715 655 -2266 683 -4455 1696 -6695 3098 -871 546 -1335 891
-1735 1292 -203 202 -322 339 -481 552 -517 689 -991 1919 -1304 3378 -136
637 -150 816 -150 2039 l0 780 159 405 c290 738 413 1022 637 1471 329 659
685 1243 1188 1945 778 1089 1255 1610 1951 2129 407 305 803 555 1605 1016
627 360 834 518 921 705 48 102 61 174 68 379 l6 190 150 58 c279 108 423 158
687 237 603 181 1537 421 2218 570 711 156 1228 270 1495 330 508 114 663 136
1045 151 278 10 1572 4 1925 -10z"/>
<path d="M18490 24404 c-214 -26 -349 -63 -490 -135 -347 -177 -612 -587 -717
-1107 -13 -66 -18 -137 -18 -297 1 -193 3 -219 27 -322 80 -338 260 -608 544
-815 228 -166 551 -249 854 -219 342 35 535 123 784 361 380 363 539 812 447
1261 -36 176 -133 435 -224 599 -204 368 -483 588 -829 655 -81 16 -309 27
-378 19z"/>
<path d="M28590 24365 c-297 -48 -536 -188 -831 -487 -229 -231 -362 -419
-412 -581 -131 -417 -80 -847 140 -1195 103 -162 305 -377 443 -469 215 -144
428 -207 700 -208 182 0 296 18 471 75 218 71 400 176 546 314 222 209 357
487 407 836 69 493 -28 950 -269 1272 -160 213 -374 357 -633 425 -84 22 -122
26 -287 29 -130 2 -217 -1 -275 -11z"/>
<path d="M17777 15029 c-159 -134 -223 -225 -262 -374 -22 -88 -20 -253 6
-345 39 -142 122 -266 229 -345 40 -29 69 -40 142 -55 515 -104 2813 -150
7628 -150 1196 0 2637 3 3201 7 l1026 6 94 105 c127 141 172 203 219 297 60
120 73 211 45 320 -18 71 -131 307 -168 351 -56 66 -174 111 -367 138 -449 64
-1117 78 -4585 97 -1056 5 -3002 16 -4325 24 -1323 8 -2488 15 -2590 15 l-185
0 -108 -91z"/>
</g>
</svg>
